<svg xmlns="http://www.w3.org/2000/svg" xmlns:xlink="http://www.w3.org/1999/xlink" width="1280" zoomAndPan="magnify" viewBox="0 0 960 540.000001" height="720" preserveAspectRatio="xMidYMid meet" version="1.0"><defs><clipPath id="195dfc051c"><path d="M 0.886719 0 L 959.113281 0 L 959.113281 539 L 0.886719 539 Z M 0.886719 0 " clip-rule="nonzero"/></clipPath><clipPath id="1a8c27dd9c"><path d="M 213.320312 158 L 670 158 L 670 381 L 213.320312 381 Z M 213.320312 158 " clip-rule="nonzero"/></clipPath><clipPath id="4bb8bf2c5e"><path d="M 304 52 L 798 52 L 798 491 L 304 491 Z M 304 52 " clip-rule="nonzero"/></clipPath><clipPath id="a9142e30fd"><path d="M 820.917969 344.277344 L 400.039062 494.621094 L 293.011719 195.003906 L 713.890625 44.660156 Z M 820.917969 344.277344 " clip-rule="nonzero"/></clipPath><clipPath id="9288431c3f"><path d="M 69 128 L 397 128 L 397 408 L 69 408 Z M 69 128 " clip-rule="nonzero"/></clipPath><clipPath id="822128042e"><path d="M 516.917969 292.277344 L 96.039062 442.621094 L -10.988281 143.003906 L 409.890625 -7.339844 Z M 516.917969 292.277344 " clip-rule="nonzero"/></clipPath><clipPath id="3b3701e236"><path d="M 409.769531 -7.671875 L -11.105469 142.671875 L 95.921875 442.289062 L 516.796875 291.949219 Z M 409.769531 -7.671875 " clip-rule="nonzero"/></clipPath><clipPath id="86bbdebbfb"><path d="M 151 33 L 428 33 L 428 331 L 151 331 Z M 151 33 " clip-rule="nonzero"/></clipPath><clipPath id="2f94e946b2"><path d="M 516.917969 292.277344 L 96.039062 442.621094 L -10.988281 143.003906 L 409.890625 -7.339844 Z M 516.917969 292.277344 " clip-rule="nonzero"/></clipPath><clipPath id="6b64612bfb"><path d="M 409.769531 -7.671875 L -11.105469 142.671875 L 95.921875 442.289062 L 516.796875 291.949219 Z M 409.769531 -7.671875 " clip-rule="nonzero"/></clipPath><clipPath id="f398e458ed"><rect x="0" width="494" y="0" height="439"/></clipPath></defs><g clip-path="url(#195dfc051c)"><path fill="#ffffff" d="M 0.886719 0 L 959.113281 0 L 959.113281 539 L 0.886719 539 Z M 0.886719 0 " fill-opacity="1" fill-rule="nonzero"/><path fill="#ffffff" d="M 0.886719 0 L 959.113281 0 L 959.113281 539 L 0.886719 539 Z M 0.886719 0 " fill-opacity="1" fill-rule="nonzero"/></g><g clip-path="url(#1a8c27dd9c)"><path fill="#0795d9" d="M 546.5625 197.875 C 531.921875 197.875 523.308594 193.847656 518.140625 187.535156 C 514.414062 182.949219 512.683594 177.78125 511.542969 172.039062 L 431.460938 191.5625 L 443.230469 255.558594 L 458.15625 248.675781 C 461.3125 247.519531 464.753906 248.675781 466.195312 251.832031 C 467.054688 253.546875 466.769531 255.273438 466.195312 256.714844 L 426.878906 368.371094 L 552.589844 368.371094 L 586.164062 252.703125 C 587.609375 248.117188 593.621094 246.675781 596.503906 250.402344 L 606.832031 262.171875 L 654.476562 193.003906 L 595.636719 172.050781 C 590.75 178.078125 585.59375 184.105469 578.695312 188.691406 C 570.382812 194.433594 560.328125 197.875 546.5625 197.875 Z M 235.714844 381 C 223.375 381 213.320312 370.945312 213.320312 358.902344 C 213.320312 346.5625 223.375 336.507812 235.714844 336.507812 L 351.382812 336.507812 C 363.722656 336.507812 373.777344 326.457031 373.777344 314.117188 C 373.777344 301.777344 363.722656 292.007812 351.382812 292.007812 L 310.910156 292.007812 C 298.570312 292.007812 288.527344 281.96875 288.527344 269.613281 C 288.527344 257.273438 298.570312 247.222656 310.910156 247.222656 L 397.3125 247.222656 C 409.652344 247.222656 419.707031 237.464844 419.707031 225.125 C 419.707031 212.785156 409.652344 202.746094 397.3125 202.746094 L 375.789062 202.746094 C 363.449219 202.746094 353.398438 192.691406 353.398438 180.351562 C 353.398438 168.011719 363.449219 158.257812 375.789062 158.257812 L 516.425781 158.257812 C 519.582031 157.972656 522.453125 160.839844 522.738281 164 C 523.308594 170.3125 524.453125 176.050781 527.324219 179.792969 C 530.480469 183.519531 535.9375 185.820312 546.261719 185.820312 C 555.730469 185.820312 564.058594 184.09375 571.8125 178.648438 C 578.410156 174.050781 583.582031 167.738281 588.464844 161.140625 C 590.179688 159.128906 592.765625 157.984375 595.347656 159.128906 L 665.386719 184.09375 C 666.246094 184.378906 666.816406 184.664062 667.402344 184.949219 C 669.984375 186.964844 670.84375 190.691406 668.84375 193.5625 L 612.300781 275.65625 C 610.285156 278.8125 605.417969 279.097656 602.832031 276.226562 L 594.789062 266.757812 L 563.214844 375.828125 C 562.640625 378.414062 560.058594 380.710938 557.1875 380.710938 C 525.90625 380.710938 494.617188 381 463.324219 381 C 387.546875 381 311.480469 381 235.714844 381 Z M 247.765625 247.234375 C 260.105469 247.234375 269.863281 257.289062 269.863281 269.628906 C 269.863281 281.96875 260.105469 292.019531 247.765625 292.019531 C 235.425781 292.019531 225.375 281.980469 225.375 269.628906 C 225.375 257.289062 235.425781 247.234375 247.765625 247.234375 Z M 247.765625 247.234375 " fill-opacity="1" fill-rule="evenodd"/></g><g clip-path="url(#4bb8bf2c5e)"><g clip-path="url(#a9142e30fd)"><g transform="matrix(1, 0, 0, 1, 304, 52)"><g clip-path="url(#f398e458ed)"><g clip-path="url(#9288431c3f)"><g clip-path="url(#822128042e)"><g clip-path="url(#3b3701e236)"><path fill="#211d1d" d="M 390.304688 128.273438 C 391.296875 136.617188 391.542969 145.46875 390.957031 154.800781 C 385.390625 243.582031 307.625 341.71875 217.269531 374 C 145.914062 399.488281 88.054688 376.273438 69.613281 321.664062 C 78.085938 392.679688 141.621094 426.332031 222.480469 397.445312 C 312.835938 365.171875 390.601562 267.03125 396.171875 178.25 C 397.339844 159.578125 395.214844 142.816406 390.304688 128.273438 Z M 390.304688 128.273438 " fill-opacity="1" fill-rule="nonzero"/></g></g></g><g clip-path="url(#86bbdebbfb)"><g clip-path="url(#2f94e946b2)"><g clip-path="url(#6b64612bfb)"><path fill="#0795d9" d="M 263.546875 44.554688 C 221.816406 59.460938 182.601562 87.519531 151.042969 122.234375 C 178.484375 96.972656 210.117188 76.773438 243.339844 64.902344 C 339.898438 30.410156 413.351562 79.363281 407.398438 174.238281 C 404.019531 228.109375 375.761719 285.199219 334.292969 330.800781 C 386.609375 282.652344 423.703125 216.117188 427.609375 153.890625 C 433.558594 59.011719 360.105469 10.0625 263.546875 44.554688 Z M 263.546875 44.554688 " fill-opacity="1" fill-rule="nonzero"/></g></g></g></g></g></g></g></svg>